# xmcd
#
# Track frame offsets:
#  150
#  13547
#  28816
#  43879
#  55534
#  71392
#  89990
#  100177
#  117497
#  135241
#  150685
#  171026
#
# Disc length: 2463 seconds
#
# Revision: 2
# Processed by: cddbd v1.5.1PL2 Copyright (c) Steve Scherf et al.
# Submitted via: Collectorz.com_Music_Collector 6.10
#
DISCID=9b099d0c
DTITLE=Julian Austin - Bulletproof
DYEAR=2002
DGENRE=Country
TTITLE0=Pussycat
TTITLE1=Ain't Taking It That Bad
TTITLE2=When Did You?
TTITLE3=I'm So Over You
TTITLE4=Ain't No Changing That
TTITLE5=Finding Me
TTITLE6=Bar Up In Houston
TTITLE7=Only God Knows
TTITLE8=End Of The Line
TTITLE9=Sweet Marina
TTITLE10=She's Getting Lonely
TTITLE11=Workin' Man's Society
EXTD=
EXTT0=
EXTT1=
EXTT2=
EXTT3=
EXTT4=
EXTT5=
EXTT6=
EXTT7=
EXTT8=
EXTT9=
EXTT10=
EXTT11=
PLAYORDER=
